<svg height="486pt" viewBox="-39 0 486 486.2" width="486pt" xmlns="http://www.w3.org/2000/svg"><path d="m57.699219 372.800781 14.402343 21.597657v85.601562h16v-90.398438l-17.601562-26.402343zm0 0"/><path d="m176.101562 208c13.597657 0 24-10.398438 24-24h-16c0 4.800781-3.203124 8-8 8h-16c-4.800781 0-8-3.199219-8-8h-16c0 13.601562 10.398438 24 24 24zm0 0"/><path d="m252.898438 272h-36.796876v-28.800781c22.398438-8.800781 37.597657-29.597657 40-53.597657l8-2.402343c9.597657-3.199219 16.796876-12.800781 16.796876-22.398438v-20.800781c0-13.601562-10.398438-24-24-24v-48c0-40-32-72-72-72h-32c-40 0-72 32-72 72v48c-13.597657 0-24 10.398438-24 24v15.199219c0 8 4 15.199219 10.402343 20l13.597657 8.800781c1.601562 24.800781 16.800781 45.601562 40 55.199219v28.800781h-36.796876c-46.402343 0-84 37.601562-84 83.199219v124.800781h16v-124.800781c0-36.800781 30.398438-67.199219 67.199219-67.199219h40.800781l24 29.601562c-2.402343 3.199219-4 6.398438-4 10.398438v25.601562l-15.203124 96.796876c-.796876 5.601562 1.601562 12 6.402343 15.203124l23.199219 17.597657c5.601562 4 13.601562 4 19.199219 0l23.199219-17.597657c4.800781-3.203124 7.203124-9.601562 6.402343-15.203124l-15.199219-96.796876v-25.601562c0-4-1.601562-7.199219-4-10.398438l24-29.601562h40.796876c36.800781 0 67.203124 30.398438 67.203124 67.199219v124.800781h16v-124.800781c0-45.597657-37.601562-83.199219-83.203124-83.199219zm-12.796876-152h-17.601562c-4-12.800781-17.601562-19.199219-30.398438-14.398438-7.203124 2.398438-12 8-14.402343 14.398438h-19.199219c-4-12.800781-17.601562-19.199219-30.398438-14.398438-7.203124 2.398438-12 8-14.402343 14.398438h-17.597657v-23.199219h1.597657c19.199219 0 37.601562-8.800781 49.601562-23.199219 29.597657 8.796876 60.800781 14.398438 92.800781 14.398438zm-32 8c0 4.800781-3.203124 8-8 8-4.800781 0-8-3.199219-8-8s3.199219-8 8-8c4.796876 0 8 3.199219 8 8zm-64 0c0 4.800781-3.203124 8-8 8-4.800781 0-8-3.199219-8-8s3.199219-8 8-8c4.796876 0 8 3.199219 8 8zm8-112h32c31.199219 0 56 24.800781 56 56-32 0-63.203124-5.601562-92.800781-15.199219l-5.601562-2.402343-4 4.800781c-9.597657 13.601562-24.800781 21.601562-41.597657 21.601562v-8.800781c0-31.199219 24.796876-56 56-56zm-56 168v-4l-20.800781-13.601562c-2.402343-1.597657-3.199219-4-3.199219-6.398438v-16c0-4.800781 3.199219-8 8-8h33.597657c4 12.800781 17.601562 19.199219 30.402343 14.398438 7.199219-2.398438 12-8 14.398438-14.398438h19.199219c4 12.800781 17.601562 19.199219 30.402343 14.398438 7.199219-2.398438 12-8 14.398438-14.398438h33.601562c4.796876 0 8 3.199219 8 8v20.800781c0 3.199219-2.402343 6.398438-5.601562 7.199219l-18.398438 6.398438v5.601562c0 26.398438-21.601562 48-48 48h-48c-26.402343 0-48-21.601562-48-48zm40 63.199219c2.398438 0 5.597657.800781 8 .800781h48c2.398438 0 5.597657 0 8-.800781v24.800781h-64zm40 80.800781v16h-16v-16zm-8 141.601562-23.203124-17.601562 14.402343-92h17.597657l14.402343 92.800781zm4-157.601562h-8l-19.203124-24h46.402343zm0 0"/><path d="m248.101562 389.601562v90.398438h16v-85.601562l14.398438-21.597657-12.800781-9.601562zm0 0"/><path d="m384.101562 32h-112v16h112c4.796876 0 8 3.199219 8 8v80c0 4.800781-3.203124 8-8 8h-61.601562l-24 72h-10.398438v-16h-16v32h37.597657l24-72h50.402343c13.597657 0 24-10.398438 24-24v-80c0-13.601562-10.402343-24-24-24zm0 0"/><path d="m272.101562 88h24v16h-24zm0 0"/><path d="m312.101562 88h24v16h-24zm0 0"/><path d="m352.101562 88h24v16h-24zm0 0"/></svg>