<?xml version="1.0" encoding="UTF-8" standalone="no"?>
<svg xmlns="http://www.w3.org/2000/svg" viewBox="0 0 24 24"><title>Strategy Plan 1</title><g id="Strategy_Plan_1" data-name="Strategy Plan 1"><circle cx="12" cy="2.5" r="2.5" style="fill:#303c42"/><path d="M15.43,10A1.12,1.12,0,0,0,16.5,8.84V8.52a2.3,2.3,0,0,0-1.08-2A6.94,6.94,0,0,0,12,5.5a6.94,6.94,0,0,0-3.42,1,2.3,2.3,0,0,0-1.08,2v.32A1.12,1.12,0,0,0,8.57,10Z" style="fill:#303c42"/><path d="M13.22,15.92a.5.5,0,1,0,.55-.83l-1.28-.85V11.5a.5.5,0,0,0-1,0v2.77L8.17,17.12a.5.5,0,1,0,.65.76L12,15.13Z" style="fill:#303c42"/><path d="M4.75,18H6.5a.5.5,0,0,0,0-1h-1v-.5a.5.5,0,0,0-1,0V17a1.75,1.75,0,0,0,.25,3.47h.5a.75.75,0,0,1,0,1.5H3.5a.5.5,0,0,0,0,1h1v.5a.5.5,0,0,0,1,0V23a1.75,1.75,0,0,0-.25-3.47h-.5a.75.75,0,0,1,0-1.5Z" style="fill:#303c42"/><path d="M17,16a4,4,0,1,0,4,4A4,4,0,0,0,17,16Zm1.35,5.35a.5.5,0,0,1-.71,0l-1-1A.5.5,0,0,1,16.5,20V18.5a.5.5,0,0,1,1,0v1.29l.85.85A.5.5,0,0,1,18.35,21.35Z" style="fill:#303c42"/></g>
	<metadata>
		<rdf:RDF xmlns:rdf="http://www.w3.org/1999/02/22-rdf-syntax-ns#" xmlns:rdfs="http://www.w3.org/2000/01/rdf-schema#" xmlns:dc="http://purl.org/dc/elements/1.1/">
			<rdf:Description about="https://iconscout.com/legal#licenses" dc:title="process; analysis; strategy; business; plan" dc:description="process; analysis; strategy; business; plan" dc:publisher="Iconscout" dc:date="2017-02-21" dc:format="image/svg+xml" dc:language="en">
				<dc:creator>
					<rdf:Bag>
						<rdf:li>Alpár - Etele Méder</rdf:li>
					</rdf:Bag>
				</dc:creator>
			</rdf:Description>
		</rdf:RDF>
    </metadata></svg>
