<svg id="SvgjsSvg1001" width="288" height="288" xmlns="http://www.w3.org/2000/svg" version="1.1" xmlns:xlink="http://www.w3.org/1999/xlink" xmlns:svgjs="http://svgjs.com/svgjs"><defs id="SvgjsDefs1002"></defs><g id="SvgjsG1008" transform="matrix(0.9167,0,0,0.9167,11.99519980139732,11.995200000000011)"><svg xmlns="http://www.w3.org/2000/svg" enable-background="new 0 0 512 512" viewBox="0 0 512 512" width="288" height="288"><path d="M394.668,0H32.001c-17.673,0-32,14.327-32,32v256c0,17.673,14.327,32,32,32h138.667v-21.333H32.001
			c-5.891,0-10.667-4.776-10.667-10.667V32c0-5.891,4.776-10.667,10.667-10.667h362.667c5.891,0,10.667,4.776,10.667,10.667v192
			h21.333V32C426.668,14.327,412.341,0,394.668,0z" fill="#2d199e" class="color000 svgShape"></path><rect width="21.333" height="64" x="128.001" y="309.333" fill="#2d199e" class="color000 svgShape"></rect><path d="M74.668,256c-5.891,0-10.667-4.776-10.667-10.667V224H42.668v21.333c0,17.673,14.327,32,32,32h21.333V256H74.668z" fill="#2d199e" class="color000 svgShape"></path><rect width="21.333" height="21.333" x="42.668" y="181.333" fill="#2d199e" class="color000 svgShape"></rect><path d="M389.836 225.941c-21.736-21.74-51.219-33.953-81.961-33.952-64.006.003-115.891 51.892-115.889 115.898.003 64.006 51.892 115.891 115.898 115.889 30.732-.001 60.204-12.208 81.937-33.937C435.084 344.584 435.091 271.205 389.836 225.941zM307.82 402.453c-52.224-.018-94.546-42.368-94.528-94.592.018-52.224 42.368-94.546 94.592-94.528 25.101-.068 49.184 9.92 66.869 27.733 17.718 17.738 27.667 41.787 27.659 66.859C402.394 360.149 360.044 402.471 307.82 402.453zM508.876 464l-66.955-66.933c-2-2-4.713-3.125-7.541-3.125-2.829.001-5.541 1.125-7.541 3.125l-29.76 29.76c-4.164 4.165-4.164 10.917 0 15.083l66.955 66.965c2 2.001 4.713 3.125 7.541 3.125v0c2.833-.009 5.547-1.145 7.541-3.157l29.76-29.76C513.04 474.917 513.04 468.165 508.876 464zM471.574 486.251l-51.872-51.883 14.677-14.677 51.872 51.883L471.574 486.251z" fill="#2d199e" class="color000 svgShape"></path><rect width="21.333" height="52.608" x="390.231" y="374.581" transform="rotate(-45.001 400.895 400.892)" fill="#2d199e" class="color000 svgShape"></rect><path d="M309.334,234.667V256c29.441,0.035,53.298,23.893,53.333,53.333h21.333C383.954,268.116,350.552,234.714,309.334,234.667z
			" fill="#2d199e" class="color000 svgShape"></path><rect width="85.333" height="21.333" x="106.668" y="362.667" fill="#2d199e" class="color000 svgShape"></rect><path d="M160.001 42.667c-17.673 0-32 14.327-32 32 0 17.673 14.327 32 32 32s32-14.327 32-32C192.001 56.994 177.674 42.667 160.001 42.667zM160.001 85.333c-5.891 0-10.667-4.776-10.667-10.667 0-5.891 4.776-10.667 10.667-10.667s10.667 4.776 10.667 10.667C170.668 80.558 165.892 85.333 160.001 85.333zM234.668 117.333c-17.673 0-32 14.327-32 32 0 17.673 14.327 32 32 32 17.673 0 32-14.327 32-32C266.668 131.66 252.341 117.333 234.668 117.333zM234.668 160c-5.891 0-10.667-4.776-10.667-10.667 0-5.891 4.776-10.667 10.667-10.667 5.891 0 10.667 4.776 10.667 10.667C245.334 155.224 240.559 160 234.668 160z" fill="#2d199e" class="color000 svgShape"></path><rect width="75.424" height="21.333" x="84.956" y="101.336" transform="rotate(-45.001 122.668 112.005)" fill="#2d199e" class="color000 svgShape"></rect><rect width="21.333" height="75.424" x="186.623" y="74.317" transform="rotate(-45.001 197.29 112.032)" fill="#2d199e" class="color000 svgShape"></rect><path d="M309.334,42.667c-17.673,0-32,14.327-32,32c0,17.673,14.327,32,32,32c17.673,0,32-14.327,32-32
			C341.335,56.994,327.008,42.667,309.334,42.667z M309.334,85.333c-5.891,0-10.667-4.776-10.667-10.667
			c0-5.891,4.776-10.667,10.667-10.667c5.891,0,10.667,4.776,10.667,10.667C320.001,80.558,315.225,85.333,309.334,85.333z" fill="#2d199e" class="color000 svgShape"></path><rect width="75.424" height="21.333" x="234.285" y="101.373" transform="rotate(-45.001 271.997 112.043)" fill="#2d199e" class="color000 svgShape"></rect></svg></g></svg>