<?xml version="1.0" standalone="no"?>
<!DOCTYPE svg PUBLIC "-//W3C//DTD SVG 20010904//EN"
 "http://www.w3.org/TR/2001/REC-SVG-20010904/DTD/svg10.dtd">
<svg version="1.0" xmlns="http://www.w3.org/2000/svg"
 width="452.000000pt" height="452.000000pt" viewBox="0 0 452.000000 452.000000"
 preserveAspectRatio="xMidYMid meet">

<g transform="translate(0.000000,452.000000) scale(0.100000,-0.100000)"
fill="#000000" stroke="none">
<path d="M970 4322 c-171 -45 -301 -190 -331 -369 -31 -189 74 -385 256 -474
68 -33 74 -34 190 -34 114 0 123 1 188 32 210 100 312 340 237 559 -62 179
-243 306 -434 303 -22 0 -70 -8 -106 -17z m197 -177 c191 -57 250 -311 103
-453 -55 -55 -121 -76 -212 -70 -60 5 -77 11 -126 44 -147 101 -157 311 -20
428 71 61 160 79 255 51z"/>
<path d="M2620 4250 l0 -90 -450 0 -450 0 0 -90 0 -90 1220 0 1220 0 0 -1175
0 -1175 -1175 0 -1175 0 0 -90 0 -90 380 0 c248 0 380 -3 380 -10 0 -6 -110
-231 -245 -500 l-245 -490 90 0 90 0 226 452 227 453 226 -453 226 -452 87 0
c49 0 88 2 88 5 0 3 -110 226 -245 495 -135 269 -245 492 -245 495 0 3 324 5
719 5 l719 0 26 31 26 31 -2 1299 -3 1298 -23 23 -23 23 -744 3 -745 2 0 90 0
90 -90 0 -90 0 0 -90z"/>
<path d="M530 3321 c-167 -53 -295 -193 -335 -365 -13 -57 -15 -155 -13 -684
3 -605 3 -618 24 -663 24 -52 78 -110 127 -136 23 -13 55 -18 119 -18 l87 0 3
-515 3 -515 26 -55 c86 -181 310 -244 467 -130 23 16 44 30 47 30 3 0 24 -14
47 -30 157 -114 381 -51 467 130 l26 55 3 1187 2 1187 528 3 c510 3 528 4 572
24 212 98 212 397 0 493 -44 20 -63 21 -731 21 l-686 0 -20 -22 c-12 -13 -64
-108 -116 -213 l-95 -190 -97 195 c-53 107 -104 203 -113 213 -22 25 -262 24
-342 -2z m359 -419 c130 -260 145 -282 196 -282 51 0 66 22 196 282 l129 258
625 0 626 0 24 -25 c33 -32 33 -84 1 -122 l-24 -28 -587 -5 -587 -5 -19 -24
c-18 -23 -19 -57 -19 -1240 0 -798 -4 -1229 -10 -1253 -30 -105 -177 -129
-237 -39 l-23 34 0 491 c0 309 -4 505 -11 528 -10 38 -48 68 -84 68 -32 0 -73
-30 -84 -61 -7 -22 -11 -191 -11 -529 l0 -497 -23 -34 c-60 -90 -207 -66 -237
39 -6 24 -10 412 -10 1120 l0 1083 -25 24 c-34 35 -93 34 -126 -1 l-24 -26 -5
-495 -5 -495 -24 -19 c-36 -29 -87 -25 -122 11 l-30 29 3 618 3 618 28 57 c33
67 105 136 168 160 26 10 75 17 121 17 l78 1 129 -258z"/>
</g>
</svg>
